<svg xmlns="http://www.w3.org/2000/svg" width="64" height="64" viewBox="0 0 64 64"><defs><style>.a{fill:#f6f3ff;}.b{fill:#2e1963;}</style></defs><g transform="translate(0 -1026.36)"><circle class="a" cx="32" cy="32" r="32" transform="translate(0 1026.36)"/><path class="b" d="M27.518,3a1.231,1.231,0,0,0-.952.418L15.725,15.87,9.913,8.861a1.231,1.231,0,0,0-1.846-.053L1.331,16.024a1.231,1.231,0,0,0,0,1.678l6.736,7.226L14.8,32.144a1.231,1.231,0,0,0,1.8,0l6.736-7.216L35.129,12.289a1.231,1.231,0,0,0,0-1.678L28.389,3.39A1.232,1.232,0,0,0,27.518,3Z" transform="translate(13.77 1040.598)"/></g></svg>